<?xml version="1.0" standalone="no"?><!DOCTYPE svg PUBLIC "-//W3C//DTD SVG 1.1//EN" "http://www.w3.org/Graphics/SVG/1.1/DTD/svg11.dtd"><svg t="1561175327552" class="icon" viewBox="0 0 1024 1024" version="1.1" xmlns="http://www.w3.org/2000/svg" p-id="1386" xmlns:xlink="http://www.w3.org/1999/xlink" width="200" height="200"><defs><style type="text/css"></style></defs><path d="M436.276 724.8h-78.4V299.4h78.4z" fill="#E56823" p-id="1387"></path><path d="M436.4 299.2h312.2v425.4H436.4z" fill="#FE8E46" p-id="1388"></path><path d="M748.4 738.8h-312c-7.8 0-14-6.2-14-14V299.2c0-7.8 6.2-14 14-14h312.2c7.8 0 14 6.2 14 14v425.4c-0.2 7.8-6.4 14.2-14.2 14.2z m-298-28h284.2V313.2H450.4v397.6z" fill="#463218" p-id="1389"></path><path d="M436.4 738.8H358c-7.8 0-14-6.2-14-14V299.2c0-7.8 6.2-14 14-14h78.4c7.8 0 14 6.2 14 14v425.4c0 7.8-6.4 14.2-14 14.2z m-64.4-28h50.4V313.2H372v397.6z" fill="#463218" p-id="1390"></path><path d="M490 353.4h204.8v113.4H490z" fill="#7DAC51" p-id="1391"></path><path d="M654.8 353.4V428H490v38.8h204.8v-113.4z" fill="#5B7C31" p-id="1392"></path><path d="M694.8 480.8H490c-7.8 0-14-6.2-14-14v-113.4c0-7.8 6.2-14 14-14h204.8c7.8 0 14 6.2 14 14v113.4c0 7.8-6.2 14-14 14z m-190.8-28h176.8v-85.4H504v85.4z" fill="#463218" p-id="1393"></path><path d="M689.6 605.6l-59 57.4 81.4 12 24.6 49.8h11.8v-162l-72.8-38.2z" fill="#FEFE71" p-id="1394"></path><path d="M748.4 738.8h-11.8c-5.4 0-10.2-3-12.6-7.8l-21.4-43.2-74.2-10.8c-5.2-0.8-9.6-4.4-11.4-9.6s-0.2-10.6 3.6-14.4l53.6-52.2-12.6-73.8c-1-5.2 1.2-10.6 5.6-13.6 4.4-3.2 10-3.6 14.8-1l72.8 38.2c4.6 2.4 7.4 7.2 7.4 12.4v161.8c0.2 7.6-6 14-13.8 14z m-87.8-85.4l53.4 7.8c4.6 0.6 8.6 3.6 10.6 7.6l9.8 20v-117.4l-40.2-21.2 9.2 53.2c0.8 4.6-0.8 9.2-4 12.4l-38.8 37.6zM546 538.6h-56c-7.8 0-14-6.2-14-14s6.2-14 14-14h56c7.8 0 14 6.2 14 14s-6.4 14-14 14z" fill="#463218" p-id="1395"></path><path d="M383.2 340.4h28v61.2h-28z" fill="#FFFFFF" p-id="1396"></path><path d="M275.6 299.2H358v425.4h-82.4z" fill="#7DAC51" p-id="1397"></path><path d="M358 738.8h-82.4c-7.8 0-14-6.2-14-14V299.2c0-7.8 6.2-14 14-14H358c7.8 0 14 6.2 14 14v425.4c0 7.8-6.4 14.2-14 14.2z m-68.4-28H344V313.2h-54.4v397.6z" fill="#463218" p-id="1398"></path><path d="M302.8 340.4h28v61.2h-28z" fill="#FFFFFF" p-id="1399"></path></svg>